HIERARCHY
ROOT Hips
{
	OFFSET 0.000000 0.000000 0.000000
	CHANNELS 6 Xposition Yposition Zposition Zrotation Yrotation Xrotation 
	JOINT LeftUpLeg_virtual
	{
		OFFSET 0.000000 0.000000 0.000000
		CHANNELS 3 Zrotation Yrotation Xrotation
		JOINT LeftUpLeg
		{
			OFFSET 8.479694 -4.795517 -0.379053
			CHANNELS 3 Zrotation Yrotation Xrotation
			JOINT LeftLeg
			{
				OFFSET 0.485052 -32.551468 0.112863
				CHANNELS 3 Zrotation Yrotation Xrotation
				JOINT LeftFoot
				{
					OFFSET 0.438033 -32.635670 -3.012641
					CHANNELS 3 Zrotation Yrotation Xrotation
					JOINT LeftToeBase
					{
						OFFSET 0.970169 -13.225353 11.864223
						CHANNELS 3 Zrotation Yrotation Xrotation
						End Site
						{
							OFFSET 0.000000 0.000000 0.000000
						}
					}
				}
			}
		}
	}
	JOINT RightUpLeg_virtual
	{
		OFFSET 0.000000 0.000000 0.000000
		CHANNELS 3 Zrotation Yrotation Xrotation
		JOINT RightUpLeg
		{
			OFFSET -8.479694 -4.795517 -0.379053
			CHANNELS 3 Zrotation Yrotation Xrotation
			JOINT RightLeg
			{
				OFFSET -0.484100 -32.551483 0.112903
				CHANNELS 3 Zrotation Yrotation Xrotation
				JOINT RightFoot
				{
					OFFSET -0.438985 -32.635651 -3.012681
					CHANNELS 3 Zrotation Yrotation Xrotation
					JOINT RightToeBase
					{
						OFFSET -0.970169 -13.225354 11.864223
						CHANNELS 3 Zrotation Yrotation Xrotation
						End Site
						{
							OFFSET 0.000000 0.000000 0.000000
						}
					}
				}
			}
		}
	}
	JOINT Spine_virtual
	{
		OFFSET 0.000000 0.000000 0.000000
		CHANNELS 3 Zrotation Yrotation Xrotation
		JOINT Spine
		{
			OFFSET 0.000000 7.722015 1.166203
			CHANNELS 3 Zrotation Yrotation Xrotation
			JOINT Spine1
			{
				OFFSET 0.000000 12.024086 0.248766
				CHANNELS 3 Zrotation Yrotation Xrotation
				JOINT Spine2
				{
					OFFSET -0.000000 11.503036 -0.491240
					CHANNELS 3 Zrotation Yrotation Xrotation
					JOINT Neck_virtual
					{
						OFFSET 0.000000 0.000000 0.000000
						CHANNELS 3 Zrotation Yrotation Xrotation
						JOINT Neck
						{
							OFFSET 0.000000 18.430687 -3.123054
							CHANNELS 3 Zrotation Yrotation Xrotation
							JOINT Head
							{
								OFFSET -0.000000 9.051071 1.034021
								CHANNELS 3 Zrotation Yrotation Xrotation
								End Site
								{
									OFFSET 0.000000 0.000000 0.000000
								}
							}
						}
					}
					JOINT LeftShoulder_virtual
					{
						OFFSET 0.000000 0.000000 0.000000
						CHANNELS 3 Zrotation Yrotation Xrotation
						JOINT LeftShoulder
						{
							OFFSET 6.197824 13.665230 -4.064723
							CHANNELS 3 Zrotation Yrotation Xrotation
							JOINT LeftArm
							{
								OFFSET 7.778132 -0.187073 -1.709282
								CHANNELS 3 Zrotation Yrotation Xrotation
								JOINT LeftForeArm
								{
									OFFSET 21.954697 0.000000 -2.041093
									CHANNELS 3 Zrotation Yrotation Xrotation
									JOINT LeftHand
									{
										OFFSET 22.992908 0.000000 -0.870901
										CHANNELS 3 Zrotation Yrotation Xrotation
										End Site
										{
											OFFSET 0.000000 0.000000 0.000000
										}
									}
								}
							}
						}
					}
					JOINT RightShoulder_virtual
					{
						OFFSET 0.000000 0.000000 0.000000
						CHANNELS 3 Zrotation Yrotation Xrotation
						JOINT RightShoulder
						{
							OFFSET -6.197824 13.665230 -4.064723
							CHANNELS 3 Zrotation Yrotation Xrotation
							JOINT RightArm
							{
								OFFSET -7.778132 -0.187073 -1.709282
								CHANNELS 3 Zrotation Yrotation Xrotation
								JOINT RightForeArm
								{
									OFFSET -21.954697 0.000000 -2.041093
									CHANNELS 3 Zrotation Yrotation Xrotation
									JOINT RightHand
									{
										OFFSET -22.992908 0.000000 -0.870901
										CHANNELS 3 Zrotation Yrotation Xrotation
										End Site
										{
											OFFSET 0.000000 0.000000 0.000000
										}
									}
								}
							}
						}
					}
				}
			}
		}
	}
}
MOTION
Frames: 14
Frame Time: 0.033333
-66.834373 81.672729 84.489532 179.964461 37.864653 179.966783 -3.219659 -1.903444 9.657405 -2.071703 2.466443 -27.439061 7.718623 2.222709 30.498038 -1.228355 -11.922137 -8.349571 0.000000 0.000000 0.000000 0.737228 -1.509457 8.870605 -1.543575 5.420632 -21.832918 -2.044351 2.783041 30.945132 6.610876 7.656779 -4.855576 0.000000 0.000000 0.000000 1.914358 1.690220 -2.527803 1.830426 -0.895838 -9.025513 -1.562383 -2.683344 8.984992 0.000757 0.030612 0.026623 -1.936518 -1.190780 10.318306 -6.830605 1.049349 -4.334956 0.000000 0.000000 0.000000 0.128936 -0.713327 7.646460 -7.410139 3.179745 2.546405 -66.446136 -4.544535 20.012811 4.062983 -29.963439 14.843242 0.000000 0.000000 0.000000 -4.709859 1.024790 6.849979 28.444815 1.634460 5.438598 54.713821 -0.840866 6.472407 -4.854800 25.080572 -2.128888 0.000000 0.000000 0.000000 
-66.960571 81.664124 84.433151 179.994377 37.938504 179.876952 -3.202821 -1.972558 9.682320 -2.301795 2.710628 -27.389976 7.440786 2.086026 30.517039 -1.695280 -12.447486 -8.495576 0.000000 0.000000 0.000000 0.760191 -1.856493 8.832370 -1.353633 5.091635 -21.599725 -2.150271 2.449691 31.028084 6.346516 7.187192 -4.522789 0.000000 0.000000 0.000000 2.002816 1.675984 -2.537573 1.893222 -1.029776 -8.909539 -1.601905 -2.859028 9.071077 -0.022525 0.152499 -0.026532 -1.916834 -1.204726 10.385873 -6.839862 1.039693 -4.324778 0.000000 0.000000 0.000000 0.146519 -0.697436 7.747322 -7.314930 3.174195 2.559258 -66.522067 -4.292615 20.134361 4.035877 -29.948580 14.846748 0.000000 0.000000 0.000000 -4.657375 0.910884 6.981403 28.354630 1.715928 5.389194 54.738304 -0.742183 6.648122 -4.786337 25.011239 -2.124147 0.000000 0.000000 0.000000 
-67.164124 81.648254 84.302727 -179.964310 38.412185 179.951866 -3.149379 -2.080458 9.590580 -2.574155 3.220957 -27.486669 7.587417 2.292661 30.778461 -1.756035 -12.402103 -8.561650 0.000000 0.000000 0.000000 0.680170 -1.990465 8.688517 -1.442431 5.619043 -21.382612 -2.157524 2.881630 30.798368 6.606092 7.151170 -4.754938 0.000000 0.000000 0.000000 2.159185 1.398656 -2.651053 1.984614 -0.841356 -8.795246 -1.602150 -2.747837 9.127018 -0.012954 -0.017283 -0.012567 -1.971485 -1.153500 10.457601 -6.771961 1.043795 -4.371204 0.000000 0.000000 0.000000 0.084999 -0.703018 7.784449 -7.114712 3.288818 2.545142 -66.669702 -3.995934 20.130589 3.902155 -29.697645 15.120099 0.000000 0.000000 0.000000 -4.703920 0.943817 7.041070 28.350637 1.746618 5.357320 54.774128 -0.598917 6.732752 -4.765903 24.887152 -2.167069 0.000000 0.000000 0.000000 
-67.415253 81.617592 84.042458 -179.805427 39.258725 -179.914518 -3.100193 -2.079418 9.532618 -2.916771 3.973506 -27.670452 7.750383 2.520563 31.268896 -1.836202 -12.310207 -8.677825 0.000000 0.000000 0.000000 0.537446 -1.982560 8.569287 -1.472967 6.360706 -21.127063 -2.121220 3.400556 30.388055 6.809354 6.917438 -4.842789 0.000000 0.000000 0.000000 2.351681 1.308002 -2.747771 2.152237 -0.774602 -8.683670 -1.614612 -2.772253 9.215943 -0.045226 -0.016513 -0.003371 -2.059822 -1.245050 10.534565 -6.685741 1.120884 -4.447910 0.000000 0.000000 0.000000 0.031462 -0.700760 7.831270 -6.797217 3.517722 2.540249 -66.887332 -3.658535 20.165772 3.867503 -29.267729 15.427570 0.000000 0.000000 0.000000 -4.793202 0.947829 7.153400 28.384318 1.780652 5.327792 54.757353 -0.448608 6.804330 -4.784681 24.723647 -2.115573 0.000000 0.000000 0.000000 
-67.724648 81.583817 83.666534 -179.775934 40.302375 -179.849413 -3.139544 -2.041272 9.410323 -3.349078 4.693231 -27.760020 7.996524 2.906895 31.793930 -1.832926 -12.009999 -8.969818 0.000000 0.000000 0.000000 0.662880 -1.958876 8.414172 -2.038912 7.091763 -21.024926 -2.273268 3.732562 30.270220 7.498609 7.057607 -4.973317 0.000000 0.000000 0.000000 2.456545 1.297468 -2.840236 2.335403 -0.726540 -8.598278 -1.654548 -2.784525 9.271920 -0.053255 -0.009172 0.039378 -2.140558 -1.295979 10.639190 -6.517355 1.186816 -4.481771 0.000000 0.000000 0.000000 -0.071906 -0.747035 7.950189 -6.579073 3.685701 2.486173 -67.207149 -3.522792 20.255177 3.734204 -28.799503 15.638782 0.000000 0.000000 0.000000 -4.836451 0.857157 7.185670 28.433989 1.732438 5.303816 54.570841 -0.341333 6.778358 -4.820439 24.683487 -2.237731 0.000000 0.000000 0.000000 
-68.099503 81.512825 83.243111 -179.686827 41.602477 -179.728833 -3.209186 -1.872402 9.179983 -3.889168 5.489505 -27.725244 8.266763 3.293010 32.259987 -1.892932 -11.667613 -9.364905 0.000000 0.000000 0.000000 0.664286 -1.764748 8.297065 -2.505799 7.716520 -21.103821 -2.259645 4.184941 30.295997 8.061439 7.071231 -5.009773 0.000000 0.000000 0.000000 2.496471 1.331746 -2.901470 2.576235 -0.714700 -8.515256 -1.678668 -2.839863 9.277168 -0.016955 -0.038857 0.052193 -2.198965 -1.402299 10.701583 -6.350057 1.131155 -4.560023 0.000000 0.000000 0.000000 -0.144123 -0.773914 7.919773 -6.473936 3.946654 2.428011 -67.605472 -3.371774 20.365281 3.562333 -28.537422 16.000037 0.000000 0.000000 0.000000 -4.878413 0.869855 7.199839 28.464091 1.709695 5.239223 54.088647 -0.142211 6.634318 -4.814434 24.794384 -2.330931 0.000000 0.000000 0.000000 
-68.545059 81.388268 82.791924 -179.613853 43.055901 -179.617706 -3.300499 -1.568200 9.325242 -4.455704 5.991035 -28.108040 8.557409 3.748243 32.691252 -1.928035 -11.197609 -9.706577 0.000000 0.000000 0.000000 0.603279 -1.620808 8.419782 -3.076214 8.162259 -21.703585 -2.188530 4.617766 30.714982 8.874702 7.295869 -4.885956 0.000000 0.000000 0.000000 2.468397 1.468089 -2.885887 2.852042 -0.740458 -8.412111 -1.674553 -2.905079 9.247699 -0.015095 -0.056658 0.045062 -2.237553 -1.484802 10.730027 -6.166885 1.363149 -4.640665 0.000000 0.000000 0.000000 -0.185376 -0.814121 7.941073 -6.439155 4.153896 2.361224 -68.100749 -3.236495 20.605356 3.345337 -28.614932 16.297417 0.000000 0.000000 0.000000 -4.917997 0.823322 7.219346 28.428081 1.671854 5.188766 53.365463 0.065580 6.341654 -4.796765 25.110366 -2.471855 0.000000 0.000000 0.000000 
-69.019508 81.228157 82.377129 -179.579279 44.663416 -179.574716 -3.348295 -1.055006 9.358541 -5.053810 6.381894 -28.272074 8.872030 4.133899 32.937494 -1.935257 -10.635294 -10.311080 0.000000 0.000000 0.000000 0.503235 -1.028290 8.567648 -3.568144 7.731439 -22.534754 -2.054208 4.961099 31.435823 9.814893 7.717230 -4.790548 0.000000 0.000000 0.000000 2.411911 1.794188 -2.755222 3.144031 -0.773649 -8.181635 -1.702217 -2.952281 9.230361 -0.037923 -0.090488 0.032786 -2.166493 -1.354005 10.649520 -5.917347 1.357860 -4.760570 0.000000 0.000000 0.000000 -0.147056 -0.849239 7.901208 -6.551530 4.229689 2.349815 -68.527766 -3.169666 21.073707 3.159470 -29.173418 16.439447 0.000000 0.000000 0.000000 -4.876942 0.765453 7.220209 28.338383 1.690066 5.117021 52.460931 0.423093 6.015046 -4.713254 25.533592 -2.540124 0.000000 0.000000 0.000000 
-69.478752 81.041397 82.019989 -179.609223 45.991215 -179.569211 -3.386795 -0.586468 9.397727 -5.659969 6.594966 -28.405087 9.184787 4.337269 33.090556 -1.957385 -10.044311 -11.004382 0.000000 0.000000 0.000000 0.404323 -0.689248 8.802838 -4.121428 7.110394 -23.931460 -1.873554 5.193249 32.845652 10.810023 8.327256 -4.482838 0.000000 0.000000 0.000000 2.272635 2.201786 -2.597249 3.400601 -0.881199 -7.851646 -1.681678 -3.002339 9.181074 -0.012142 -0.135079 0.032725 -2.155982 -1.536115 10.631599 -5.715952 1.418696 -4.868025 0.000000 0.000000 0.000000 -0.171449 -0.994012 7.956177 -6.565834 4.110808 2.310004 -68.767028 -3.167119 21.530756 2.782816 -29.983322 16.654858 0.000000 0.000000 0.000000 -4.891579 0.587080 7.194161 28.221119 1.683569 5.078132 51.597428 0.891573 5.791191 -4.591472 26.216175 -2.636462 0.000000 0.000000 0.000000 
-69.856895 80.858528 81.783615 -179.778666 47.562330 -179.828198 -3.392907 0.200279 9.597562 -6.250373 6.579630 -28.544062 9.448322 4.568669 33.131417 -1.985286 -9.409351 -11.556581 0.000000 0.000000 0.000000 0.512991 0.171090 9.248971 -4.715861 5.948209 -25.752436 -1.658381 5.329270 34.894275 11.707551 9.016993 -4.008831 0.000000 0.000000 0.000000 2.103700 2.798082 -2.281432 3.554556 -0.997739 -7.263998 -1.692347 -2.972364 9.197651 -0.045616 -0.063435 0.038608 -2.082872 -1.570921 10.558308 -5.489964 1.389242 -5.012342 0.000000 0.000000 0.000000 -0.149710 -0.941570 7.998274 -6.601224 3.744491 2.359353 -68.708821 -3.359542 22.142614 2.439866 -30.885801 16.667373 0.000000 0.000000 0.000000 -4.836606 0.540884 7.081918 28.092399 1.704110 5.044489 50.803101 1.337671 5.801931 -4.476205 27.132783 -2.679090 0.000000 0.000000 0.000000 
-70.093979 80.717850 81.685654 179.923616 48.916742 179.990415 -3.443450 0.856605 9.669105 -6.765853 6.305658 -28.556365 9.623199 4.725447 32.915566 -2.101333 -8.830506 -11.985561 0.000000 0.000000 0.000000 0.735929 0.954519 9.585858 -5.137970 4.170257 -28.168101 -1.260850 5.442477 37.997985 11.831594 9.238747 -3.288279 0.000000 0.000000 0.000000 1.938213 3.359942 -2.004170 3.575170 -1.154968 -6.661607 -1.737888 -2.944116 9.185583 0.003422 -0.051493 0.064304 -2.053229 -1.421451 10.554830 -5.294461 1.278464 -5.183129 0.000000 0.000000 0.000000 -0.135829 -0.967620 7.936663 -6.676461 3.335285 2.489935 -68.389441 -3.694617 22.517395 2.201675 -31.811312 16.540041 0.000000 0.000000 0.000000 -4.798812 0.561186 7.109766 27.991642 1.856840 4.975138 50.310688 1.840817 6.074082 -4.407577 28.080706 -2.812588 0.000000 0.000000 0.000000 
-70.135628 80.630920 81.672707 179.867936 49.635777 179.922701 -3.222093 1.353479 9.637927 -7.104402 5.847919 -28.360984 9.802710 4.578784 32.642341 -2.318679 -8.312905 -12.291361 0.000000 0.000000 0.000000 0.360294 1.929337 9.773367 -4.849678 2.766960 -30.673184 -1.165102 4.660681 41.358766 12.462576 9.918887 -1.089416 0.000000 0.000000 0.000000 1.900030 3.758684 -1.672298 3.538020 -1.399089 -5.992180 -1.785742 -2.977043 9.286059 0.045528 -0.114755 0.003444 -2.100875 -1.487974 10.645001 -5.224765 1.195090 -5.265400 0.000000 0.000000 0.000000 -0.179304 -0.949221 8.001103 -6.571997 2.755417 2.587391 -67.702372 -4.305954 22.517361 2.002899 -32.497801 16.316178 0.000000 0.000000 0.000000 -4.851940 0.745612 7.157818 27.995200 1.944589 4.934052 50.153082 2.083491 6.427557 -4.397309 28.979349 -2.915636 0.000000 0.000000 0.000000 
-69.934830 80.611855 81.669327 179.866789 50.255477 179.864494 -2.988701 2.070061 9.551996 -7.323924 5.503681 -27.885914 9.995704 4.315149 32.344357 -2.644513 -7.930675 -12.430291 0.000000 0.000000 0.000000 0.060662 2.748661 9.555978 -4.702728 1.628814 -33.282002 -1.041223 4.174131 45.516012 12.542885 9.974196 1.270834 0.000000 0.000000 0.000000 1.865625 4.213052 -1.460106 3.383853 -1.567521 -5.177657 -1.866741 -2.925802 9.397639 0.071937 -0.056780 -0.007553 -2.164081 -1.413711 10.732963 -5.185216 1.074208 -5.351568 0.000000 0.000000 0.000000 -0.302376 -0.877130 8.117339 -6.251380 1.949058 2.720163 -66.709556 -5.306649 22.114686 1.908534 -32.974873 15.796645 0.000000 0.000000 0.000000 -4.827212 0.714610 7.279707 28.078047 1.863921 4.732344 50.462974 1.924722 7.044090 -4.441539 29.585466 -2.978927 0.000000 0.000000 0.000000 
-69.555473 80.641708 81.612328 179.919409 50.347083 179.879288 -3.366630 2.404673 9.317147 -6.716437 5.075513 -27.222967 10.217928 4.226052 32.206838 -2.951082 -7.541392 -12.846082 0.000000 0.000000 0.000000 -0.091143 3.046435 9.387580 -4.958327 1.122361 -35.996378 -0.705032 4.166028 48.427841 12.446489 10.099380 3.891706 0.000000 0.000000 0.000000 1.762860 4.432434 -1.349742 3.105665 -1.738321 -4.314307 -1.808233 -2.911928 9.461278 -0.030392 -0.034600 0.021011 -2.242512 -1.458942 10.799510 -5.167229 0.805880 -5.361354 0.000000 0.000000 0.000000 -0.368514 -0.799803 8.152217 -5.705853 1.094932 2.832984 -65.373257 -6.614882 21.085175 1.872171 -33.250874 15.222781 0.000000 0.000000 0.000000 -4.809239 0.774327 7.336912 28.196737 1.711056 4.598753 51.342942 1.227064 7.736992 -4.509445 29.938953 -2.917965 0.000000 0.000000 0.000000 
